<svg width="160" height="160" viewBox="0 0 160 160" fill="none" xmlns="http://www.w3.org/2000/svg">
    <rect width="160" height="160" fill="black" fillOpacity="0"/>
    <path fillRule="evenodd" clipRule="evenodd" d="M80 160C124.183 160 160 124.183 160 80C160 35.8172 124.183 0 80 0C35.8172 0 0 35.8172 0 80C0 124.183 35.8172 160 80 160Z" fill="#4A90E2"/>
    <path fillRule="evenodd" clipRule="evenodd" d="M59.3428 64.0714C59.4367 61.3614 59.9687 58.8485 60.939 56.5324C61.9093 54.2164 63.2864 52.2076 65.0705 50.506C66.8545 48.8044 69.0454 47.4731 71.6432 46.512C74.2411 45.551 77.2457 45.0704 80.6573 45.0704C83.7559 45.0704 86.5806 45.5116 89.1315 46.3939C91.6824 47.2762 93.8655 48.4972 95.6808 50.057C97.4961 51.6168 98.9046 53.4838 99.9062 55.658C100.908 57.8323 101.409 60.1955 101.409 62.7479C101.409 66.4032 100.548 69.5385 98.8263 72.1539C97.1049 74.7693 94.6793 77.0222 91.5493 78.9129C90.047 79.8267 88.795 80.6775 87.7935 81.4653C86.7919 82.253 85.9938 83.0644 85.3991 83.8995C84.8044 84.7345 84.3819 85.6247 84.1315 86.57C83.8811 87.5153 83.7559 88.5867 83.7559 89.7841V92.62H74.0376L73.9907 89.0278C73.9281 87.3262 74.0611 85.7743 74.3897 84.3721C74.7184 82.9699 75.2583 81.6701 76.0094 80.4727C76.7606 79.2753 77.723 78.1566 78.8968 77.1168C80.0705 76.0769 81.4554 75.0686 83.0517 74.0918C84.4602 73.241 85.6573 72.4138 86.6432 71.6103C87.6292 70.8068 88.4273 69.9796 89.0376 69.1288C89.6479 68.278 90.0861 67.3721 90.3522 66.411C90.6182 65.45 90.7512 64.3707 90.7512 63.1733C90.7512 61.8814 90.5008 60.684 90 59.5811C89.4993 58.4782 88.7872 57.525 87.8639 56.7215C86.9406 55.918 85.8217 55.2956 84.5071 54.8545C83.1925 54.4133 81.7371 54.1928 80.1409 54.1928C76.8858 54.1928 74.2802 55.0829 72.324 56.8633C70.3678 58.6437 69.2802 61.0463 69.0611 64.0714H59.3428ZM79.4837 114.93C78.3882 114.93 77.3945 114.756 76.5024 114.41C75.6104 114.063 74.8514 113.575 74.2254 112.944C73.5995 112.314 73.1065 111.558 72.7466 110.676C72.3866 109.793 72.2067 108.817 72.2067 107.745C72.2067 106.642 72.3866 105.642 72.7466 104.744C73.1065 103.846 73.5995 103.082 74.2254 102.451C74.8514 101.821 75.6104 101.333 76.5024 100.986C77.3945 100.639 78.3882 100.466 79.4837 100.466C81.6433 100.466 83.3882 101.128 84.7184 102.451C86.0486 103.775 86.7137 105.539 86.7137 107.745C86.7137 108.817 86.5416 109.793 86.1973 110.676C85.853 111.558 85.36 112.314 84.7184 112.944C84.0768 113.575 83.31 114.063 82.4179 114.41C81.5259 114.756 80.5478 114.93 79.4837 114.93Z" fill="white"/>
</svg>